<svg xmlns="http://www.w3.org/2000/svg" version="1.1" xmlns:xlink="http://www.w3.org/1999/xlink" xmlns:svgjs="http://svgjs.dev/svgjs" width="2000" height="1727" viewBox="0 0 2000 1727"><g transform="matrix(1,0,0,1,-1.4312167676719127,0.7004814220202888)"><svg viewBox="0 0 286 247" data-background-color="#001f3f" preserveAspectRatio="xMidYMid meet" height="1727" width="2000" xmlns="http://www.w3.org/2000/svg" xmlns:xlink="http://www.w3.org/1999/xlink"><g id="tight-bounds" transform="matrix(1,0,0,1,0.20466399777708943,-0.099973655792013)"><svg viewBox="0 0 285.59062963730565 247.2" height="247.2" width="285.59062963730565"><g><svg viewBox="0 0 285.5906296373057 247.20000000000002" height="247.2" width="285.59062963730565"><g><svg viewBox="0 0 285.5906296373057 247.20000000000002" height="247.20000000000002" width="285.5906296373057"><g id="textblocktransform"><svg viewBox="0 0 285.5906296373057 247.20000000000002" height="247.20000000000002" width="285.5906296373057" id="textblock"><g><svg viewBox="0 0 285.5906296373057 247.20000000000002" height="247.20000000000002" width="285.5906296373057"><path d="M284.922 53.02C283.579 27.36 279.753 20.227 279.753 20.227 268.005-6.202 253.344-0.506 240.172 3.292 216.918 3.446 193.758 9.091 170.557 12.119 121.86 12.581 72.747 4.986 24.292 23.717 19.741 29.464-4.722 24.846 0.81 56.304 2.26 69.39 7.55 83.913 7.388 95.922 8.113 98.026 9.12 93.202 9.55 96.23 11.054 104.39 13.511 100.541 15.525 105.365 12.719 118.246 14.733 128.971 16.653 140.21 13.269 143.135 8.932 141.749 6.986 151.449 6.784 158.479 5.697 157.145 4.502 156.837 3.629 156.632 1.87 157.402 2.166 159.608 3.173 167.152-1.151 171.514 1.561 178.904-0.305 186.91 2.85 193.838 2.421 202.511 2.367 204.255 2.662 205.744 3.132 206.154 5.213 208.361 2.179 212.672 2.501 217.342 23.849 249.262 47.009 227.195 68.881 241.872 74.56 231.608 70.29 245.516 72.559 243.36 74.332 240.846 75.621 251.263 77.621 245.362 77.93 243.668 77.46 239.665 78.561 240.435 79.138 240.846 79.648 240.743 79.729 238.382 79.85 234.841 78.789 237.048 78.507 235.201 81.555 225.861 80.803 248.081 83.663 247.158 83.529 244.438 82.696 240.538 84.401 241.051 86.093 237.151 86.147 233.918 87.65 242.693 87.704 244.592 87.973 245.926 88.402 246.85 93.101 237.305 97.774 250.237 102.701 245.926 105.722 241.205 108.622 248.492 111.683 246.696 112.757 245.259 113.845 242.693 114.879 247.004 127.54 247.928 141.033 244.079 153.036 247.158 185.111 241.41 219.389 249.518 253.209 241.923 261.184 238.998 269.468 234.841 277.242 231.506 277.242 231.506 283.539 222.371 283.539 181.316S284.882 145.393 285.083 112.703C285.285 80.013 286.224 78.679 284.882 53.02Z" opacity="1" fill="#fe7239" data-fill-palette-color="tertiary"></path><g transform="matrix(1,0,0,1,55.76832,26.230666666666668)"><svg width="174.0539896373057" viewBox="1.05 -36.16 33.690000000000005 37.699999999999996" height="194.7386666666667" data-palette-color="#ffffff"><path d="M1.64-1.78L1.64-1.78Q1.95-2.42 2.29-3.21 2.64-4 2.93-4.93L2.93-4.93 3.59-6.54Q3.15-7.2 2.7-7.97 2.25-8.74 1.88-9.55 1.51-10.35 1.28-11.16 1.05-11.96 1.05-12.72L1.05-12.72Q1.05-12.77 1.43-12.81 1.81-12.84 2.38-12.87 2.95-12.89 3.63-12.9 4.3-12.92 4.87-12.93 5.44-12.94 5.82-12.95 6.2-12.96 6.2-12.96L6.2-12.96Q6.76-14.43 7.3-15.75 7.84-17.07 8.37-18.41 8.91-19.75 9.45-21.15 9.99-22.56 10.52-24.17L10.52-24.17Q11.55-27.2 12.52-29.49 13.5-31.79 14.36-33.76L14.36-33.76Q14.45-34.01 14.69-34.22 14.92-34.42 15.19-34.57 15.45-34.72 15.71-34.81 15.97-34.91 16.11-34.96L16.11-34.96Q16.21-34.99 16.86-35.18 17.5-35.38 18.33-35.6 19.17-35.82 19.98-35.99 20.8-36.16 21.29-36.16L21.29-36.16 21.73-36.16Q22.12-36.16 22.47-35.97 22.83-35.79 22.95-35.25L22.95-35.25Q24.12-32.25 25.45-28.7 26.78-25.15 28.05-20.87L28.05-20.87Q28.74-18.58 29.39-16.53 30.05-14.48 30.71-12.52 31.37-10.57 32.04-8.62 32.71-6.67 33.42-4.59L33.42-4.59Q33.64-3.71 33.87-3.2 34.11-2.69 34.3-2.39 34.5-2.1 34.62-1.97 34.74-1.83 34.74-1.68L34.74-1.68Q34.74-1.54 34.28-1.39L34.28-1.39 29.03 0.32Q28.44 0.54 27.83 0.76 27.22 0.98 26.68 1.15 26.15 1.32 25.74 1.43 25.34 1.54 25.17 1.54L25.17 1.54 25.02 1.54Q24.68 1.54 24.54 1.33 24.39 1.12 24.34 0.93L24.34 0.93Q24.1 0.12 23.85-0.52 23.61-1.17 23.38-1.82 23.14-2.47 22.91-3.2 22.68-3.93 22.46-4.93L22.46-4.93Q22.41-5.05 22.19-5.14 21.97-5.22 21.67-5.27 21.36-5.32 21.02-5.33 20.68-5.35 20.39-5.35L20.39-5.35Q19.46-5.35 18.88-5.33 18.31-5.32 17.87-5.31 17.43-5.3 17.03-5.29 16.63-5.27 16.04-5.27L16.04-5.27Q15.33-5.27 14.59-5.29 13.84-5.3 13.23-5.32L13.23-5.32 11.84-5.37Q11.21-3.61 10.57-2.08 9.94-0.54 9.2 1.1L9.2 1.1Q9.16 1.29 8.97 1.42 8.79 1.54 8.59 1.54L8.59 1.54Q8.45 1.54 8.42 1.51L8.42 1.51Q6.05 0.66 4.44-0.17 2.83-1 1.64-1.78ZM18.09-23.73L18.09-23.73Q17.5-21.56 16.93-19.79 16.36-18.02 15.88-16.65 15.41-15.28 15.06-14.34 14.72-13.4 14.58-12.89L14.58-12.89 14.58-12.67Q14.58-12.52 14.55-12.48L14.55-12.48 20.41-12.48Q20.14-13.67 19.84-14.89 19.53-16.11 19.24-17.46 18.95-18.8 18.65-20.34 18.36-21.88 18.09-23.73Z" opacity="1" transform="matrix(1,0,0,1,0,0)" fill="#ffffff" class="wordmark-text-0" data-fill-palette-color="quaternary" id="text-0"></path></svg></g></svg></g></svg></g></svg></g><g></g></svg></g><defs></defs></svg><rect width="285.59062963730565" height="247.2" fill="none" stroke="none" visibility="hidden"></rect></g></svg></g></svg>